<svg xmlns="http://www.w3.org/2000/svg" xmlns:xlink="http://www.w3.org/1999/xlink" zoomAndPan="magnify" viewBox="0 0 375 374.999991"  preserveAspectRatio="xMidYMid meet" version="1.0"><defs><g><g id="id1"/></g></defs><g fill="rgb(49.798584%, 87.059021%, 100%)" fill-opacity="1"><g transform="translate(136.007808, 248.435777)"><g><path d="M 53.421875 0 L 10.546875 0 L 10.71875 -1.75 L 12.828125 -1.75 C 15.867188 -1.75 18.472656 -2.800781 20.640625 -4.90625 C 22.816406 -7.019531 23.960938 -9.601562 24.078125 -12.65625 L 24.078125 -110.359375 C 23.960938 -113.410156 22.816406 -115.988281 20.640625 -118.09375 C 18.472656 -120.195312 15.867188 -121.25 12.828125 -121.25 L 10.71875 -121.25 L 10.546875 -123.015625 L 45.515625 -123.015625 C 57.578125 -123.015625 66.945312 -120.347656 73.625 -115.015625 C 80.3125 -109.679688 83.65625 -102.566406 83.65625 -93.671875 C 83.65625 -86.640625 81.78125 -80.804688 78.03125 -76.171875 C 74.28125 -71.546875 69.707031 -68.472656 64.3125 -66.953125 C 73.570312 -65.546875 80.894531 -61.738281 86.28125 -55.53125 C 91.675781 -49.320312 94.375 -41.5 94.375 -32.0625 C 94.375 -22.632812 90.769531 -14.929688 83.5625 -8.953125 C 76.351562 -2.984375 66.304688 0 53.421875 0 Z M 35.5 -6.5 L 52.71875 -6.5 C 52.832031 -6.5 52.953125 -6.5 53.078125 -6.5 C 61.972656 -6.5 68.878906 -8.898438 73.796875 -13.703125 C 78.722656 -18.503906 81.1875 -25.359375 81.1875 -34.265625 C 81.1875 -39.304688 80.335938 -43.726562 78.640625 -47.53125 C 76.941406 -51.34375 74.804688 -54.363281 72.234375 -56.59375 C 65.429688 -62.207031 55.238281 -65.015625 41.65625 -65.015625 C 41.65625 -65.015625 41.59375 -65.015625 41.46875 -65.015625 L 41.46875 -66.609375 C 56.9375 -66.609375 66.253906 -72.347656 69.421875 -83.828125 C 70.117188 -86.398438 70.46875 -89.269531 70.46875 -92.4375 C 70.46875 -100.40625 68.269531 -106.554688 63.875 -110.890625 C 59.488281 -115.222656 53.132812 -117.390625 44.8125 -117.390625 L 35.5 -117.390625 Z M 35.5 -6.5 "/></g></g></g><path fill="rgb(85.488892%, 74.899292%, 100%)" d="M 187.417969 285.074219 C 159.71875 285.074219 133.636719 274.292969 114.066406 254.679688 C 94.453125 235.109375 83.671875 209.027344 83.671875 181.328125 C 83.671875 153.628906 94.453125 127.546875 114.066406 107.976562 C 133.636719 88.363281 159.71875 77.582031 187.417969 77.582031 C 215.117188 77.582031 241.199219 88.363281 260.769531 107.976562 C 280.382812 127.589844 291.164062 153.628906 291.164062 181.328125 C 291.164062 209.027344 280.382812 235.109375 260.769531 254.679688 C 241.199219 274.292969 215.117188 285.074219 187.417969 285.074219 Z M 187.417969 83.800781 C 161.375 83.800781 136.871094 93.960938 118.460938 112.371094 C 100.050781 130.78125 89.890625 155.285156 89.890625 181.328125 C 89.890625 207.367188 100.050781 231.875 118.460938 250.285156 C 136.871094 268.695312 161.375 278.855469 187.417969 278.855469 C 213.457031 278.855469 237.964844 268.695312 256.375 250.285156 C 274.785156 231.875 284.945312 207.367188 284.945312 181.328125 C 284.945312 155.285156 274.785156 130.78125 256.375 112.371094 C 237.964844 93.960938 213.457031 83.800781 187.417969 83.800781 Z M 187.417969 83.800781 " fill-opacity="1" fill-rule="nonzero"/></svg>