<?xml version="1.0" standalone="no"?>
<!DOCTYPE svg PUBLIC "-//W3C//DTD SVG 20010904//EN"
 "http://www.w3.org/TR/2001/REC-SVG-20010904/DTD/svg10.dtd">
<svg version="1.0" xmlns="http://www.w3.org/2000/svg"
 width="872.000000pt" height="872.000000pt" viewBox="0 0 872.000000 872.000000"
 preserveAspectRatio="xMidYMid meet">
<metadata>
Created by potrace 1.14, written by Peter Selinger 2001-2017
</metadata>
<g transform="translate(0.000000,872.000000) scale(0.100000,-0.100000)"
fill="#000000" stroke="none">
<path d="M4265 8203 c-22 -9 -112 -54 -200 -98 -88 -45 -286 -146 -440 -225
-558 -284 -794 -405 -1010 -515 -121 -62 -355 -181 -520 -265 -165 -84 -394
-201 -510 -260 -115 -59 -358 -183 -540 -275 -416 -211 -416 -212 -457 -276
-46 -73 -45 -10 -43 -1949 l1 -1825 23 -48 c42 -85 78 -110 396 -271 466 -237
881 -449 1100 -561 110 -56 340 -173 510 -260 333 -169 686 -349 990 -505 105
-54 309 -158 454 -231 l264 -134 77 0 77 0 214 108 c210 107 560 285 974 497
116 59 336 172 490 250 154 78 388 198 520 265 132 67 389 198 570 291 182 92
445 227 586 298 141 72 272 144 291 159 40 32 73 92 86 157 6 27 9 774 8 1860
l-2 1815 -22 46 c-42 86 -79 111 -397 273 -644 328 -909 463 -1135 578 -452
231 -717 367 -995 508 -154 78 -374 191 -490 250 -706 361 -688 352 -762 356
-49 3 -79 -1 -108 -13z"/>
</g>
</svg>
